<svg width="25" height="25" viewBox="0 0 25 25" fill="none"
	xmlns="http://www.w3.org/2000/svg">
	<path d="M23.6842 0H1.31579C0.657895 0 0 0.657895 0 1.31579V23.6842C0 24.3421 0.657895 25 1.31579 25H13.3772V15.3509H10.0877V11.6228H13.3772V8.77193C13.1579 6.35965 14.9123 3.94737 17.3246 3.72807C18.3539 3.63449 19.8583 3.64879 21.0526 3.94737V7.23684H19.0789C17.5439 7.23684 17.3246 8.11403 17.3246 9.21053V11.6228H21.0526L20.3947 15.3509H17.3246V25H23.6842C24.3421 25 25 24.3421 25 23.6842V1.31579C25 0.657895 24.3421 0 23.6842 0Z" fill="white"/>
</svg>
