<svg width="25" height="25" viewBox="0 0 25 25" fill="none"
	xmlns="http://www.w3.org/2000/svg">
	<path d="M12.5 16.6667C14.8012 16.6667 16.6667 14.8012 16.6667 12.5C16.6667 10.1988 14.8012 8.33333 12.5 8.33333C10.1988 8.33333 8.33333 10.1988 8.33333 12.5C8.33333 14.8012 10.1988 16.6667 12.5 16.6667Z" fill="white"/>
	<path fill-rule="evenodd" clip-rule="evenodd" d="M0 7.5C0 3.35786 3.35786 0 7.5 0H17.5C21.6421 0 25 3.35786 25 7.5V17.5C25 21.6421 21.6421 25 17.5 25H7.5C3.35786 25 0 21.6421 0 17.5V7.5ZM20 6.66667C20.9205 6.66667 21.6667 5.92047 21.6667 5C21.6667 4.07953 20.9205 3.33333 20 3.33333C19.0795 3.33333 18.3333 4.07953 18.3333 5C18.3333 5.92047 19.0795 6.66667 20 6.66667ZM12.5 19.1667C16.1819 19.1667 19.1667 16.1819 19.1667 12.5C19.1667 8.8181 16.1819 5.83333 12.5 5.83333C8.8181 5.83333 5.83333 8.8181 5.83333 12.5C5.83333 16.1819 8.8181 19.1667 12.5 19.1667Z" fill="white"/>
</svg>
