<svg width="37" height="21" viewBox="0 0 37 21" fill="none"
	xmlns="http://www.w3.org/2000/svg">
	<path d="M36.1841 18.7496C36.1259 18.6624 36.0969 18.5752 36.0678 18.5171C35.4284 17.3836 34.2368 15.9885 32.4639 14.3319L32.4349 14.3029L32.4058 14.2738L32.3767 14.2447H32.3477C31.5339 13.46 31.0398 12.9659 30.8073 12.7044C30.4295 12.2103 30.3132 11.6871 30.5457 11.164C30.6911 10.7862 31.2723 9.94334 32.2605 8.6936C32.7836 8.02514 33.1905 7.502 33.4812 7.09511C35.6609 4.18876 36.62 2.3287 36.3294 1.51492L36.2131 1.34054C36.1259 1.22428 35.9516 1.10803 35.6319 1.02084C35.3122 0.933648 34.9053 0.904585 34.4112 0.962712L28.9763 0.991776C28.8891 0.962712 28.7729 0.962712 28.5985 0.991776C28.4241 1.02084 28.3369 1.0499 28.3369 1.0499L28.2497 1.10803L28.1625 1.16616C28.1044 1.19522 28.0172 1.28241 27.9591 1.3696C27.8719 1.45679 27.8138 1.57305 27.7847 1.6893C27.2034 3.22967 26.5059 4.62471 25.7503 5.96164C25.2853 6.74635 24.8493 7.41481 24.4715 7.99608C24.0936 8.57735 23.7449 8.98424 23.4833 9.27487C23.2217 9.53645 22.9892 9.76895 22.7567 9.91427C22.5533 10.0887 22.3789 10.1468 22.2626 10.1177C22.1464 10.0887 22.0301 10.0596 21.9429 10.0305C21.7686 9.91427 21.6232 9.76895 21.507 9.56551C21.3907 9.36207 21.3326 9.12956 21.2745 8.83892C21.2454 8.54829 21.2164 8.28672 21.2164 8.08327C21.2164 7.87983 21.2164 7.56013 21.2164 7.1823C21.2164 6.80448 21.2454 6.51384 21.2454 6.39759C21.2454 5.90351 21.2454 5.40943 21.2745 4.82816C21.3036 4.27595 21.3036 3.81094 21.3326 3.49124C21.3326 3.17154 21.3617 2.82278 21.3617 2.44495C21.3617 2.06713 21.3326 1.80555 21.3036 1.57305C21.2745 1.3696 21.1873 1.16616 21.1001 0.962712C21.0129 0.759267 20.8676 0.61395 20.7223 0.497696C20.5479 0.381442 20.3445 0.294251 20.0829 0.236124C19.4144 0.0908068 18.5716 0.00361629 17.5253 0.00361629C15.1421 -0.0254472 13.6598 0.11987 12.9623 0.468632C12.7008 0.61395 12.4682 0.788331 12.2357 1.0499C12.0032 1.34054 11.9742 1.48585 12.1485 1.51492C12.9042 1.63117 13.4564 1.89274 13.747 2.3287L13.8633 2.5612C13.9505 2.73559 14.0377 3.02622 14.1249 3.43311C14.2121 3.84 14.2702 4.30502 14.2992 4.82816C14.3574 5.75819 14.3574 6.54291 14.2992 7.1823C14.2411 7.85076 14.183 8.34484 14.1249 8.72267C14.0667 9.10049 13.9795 9.39113 13.8633 9.62364C13.747 9.85614 13.6598 10.0015 13.6308 10.0305C13.6017 10.0887 13.5727 10.1177 13.5436 10.1177C13.3692 10.1758 13.1948 10.2049 13.0205 10.2049C12.8461 10.2049 12.6426 10.1177 12.3811 9.94334C12.1195 9.76895 11.8579 9.53645 11.5963 9.21675C11.3348 8.89705 11.0151 8.49016 10.6663 7.90889C10.3175 7.35668 9.96878 6.68822 9.62002 5.93257L9.32939 5.38036C9.12594 5.0316 8.89343 4.50846 8.54467 3.84C8.22497 3.17154 7.93434 2.50308 7.67277 1.89274C7.58558 1.63117 7.41119 1.42773 7.20775 1.28241L7.12056 1.22428C7.06243 1.16616 6.94618 1.10803 6.82992 1.0499C6.68461 0.991775 6.53929 0.962712 6.39397 0.933648L1.22067 0.962712C0.697524 0.962712 0.319699 1.07897 0.145318 1.31147L0.058127 1.42773C0.0290635 1.48585 0 1.60211 0 1.71836C0 1.86368 0.0290635 2.03806 0.116254 2.24151C0.871905 4.01438 1.68568 5.72913 2.58665 7.38575C3.48762 9.04237 4.24327 10.3793 4.91173 11.3965C5.58019 12.4137 6.24865 13.3728 6.91711 14.2447C7.58558 15.1457 8.05059 15.727 8.2831 15.9595C8.51561 16.2211 8.68999 16.3954 8.80624 16.5408L9.27126 17.0058C9.56189 17.2964 10.0269 17.6742 10.6082 18.0811C11.1895 18.5171 11.8579 18.924 12.5554 19.3308C13.282 19.7377 14.0958 20.0865 15.0549 20.3481C16.014 20.6096 16.915 20.6968 17.8159 20.6678H19.9957C20.4316 20.6387 20.7804 20.4934 21.0129 20.2609L21.1001 20.1737C21.1582 20.0865 21.1873 19.9702 21.2454 19.8249C21.3036 19.6796 21.3036 19.5052 21.3036 19.3018C21.3036 18.7496 21.3326 18.2555 21.4198 17.8195C21.507 17.3836 21.6233 17.0639 21.7395 16.8314C21.8558 16.5989 22.0011 16.4245 22.1464 16.2792C22.2917 16.1339 22.408 16.0467 22.4661 16.0176C22.5242 15.9885 22.5823 15.9595 22.6114 15.9595C22.902 15.8723 23.2799 15.9595 23.6868 16.2501C24.0936 16.5408 24.4715 16.9186 24.8493 17.3545C25.1981 17.7905 25.634 18.2846 26.1572 18.8368C26.6512 19.389 27.1163 19.7959 27.4941 20.0574L27.8719 20.2899C28.1335 20.4353 28.4532 20.5806 28.8601 20.6968C29.267 20.8131 29.6157 20.8421 29.9063 20.784L34.76 20.6968C35.225 20.6968 35.6028 20.6096 35.8644 20.4643C36.1259 20.319 36.3003 20.1446 36.3294 19.9412C36.3875 19.7377 36.3875 19.5343 36.3294 19.3018C36.2713 19.0111 36.2422 18.8368 36.1841 18.7496Z" fill="white"/>
</svg>
