<svg width="33" height="23" viewBox="0 0 33 23" fill="none"
	xmlns="http://www.w3.org/2000/svg">
	<path fill-rule="evenodd" clip-rule="evenodd" d="M29.2777 0.70353C30.6847 1.08235 31.7942 2.19177 32.173 3.59883C32.8765 6.16942 32.8495 11.5271 32.8495 11.5271C32.8495 11.5271 32.8495 16.8577 32.173 19.4283C31.7942 20.8353 30.6847 21.9447 29.2777 22.3236C26.7071 23 16.4247 23 16.4247 23C16.4247 23 6.16942 23 3.57177 22.2965C2.16471 21.9177 1.0553 20.8083 0.676471 19.4012C0 16.8577 0 11.5 0 11.5C0 11.5 0 6.16942 0.676471 3.59883C1.0553 2.19177 2.19177 1.0553 3.57177 0.676471C6.14236 0 16.4247 0 16.4247 0C16.4247 0 26.7071 0 29.2777 0.70353ZM21.7013 11.4999L13.1507 16.4246V6.57522L21.7013 11.4999Z" fill="white"/>
</svg>
