<svg width="20" height="20" viewBox="0 0 20 20" fill="none"
	xmlns="http://www.w3.org/2000/svg">
	<path d="M18.9474 0H1.05263C0.526316 0 0 0.526316 0 1.05263V18.9474C0 19.4737 0.526316 20 1.05263 20H10.7018V12.2807H8.07018V9.29825H10.7018V7.01754C10.5263 5.08772 11.9298 3.15789 13.8596 2.98246C14.6831 2.90759 15.8867 2.91903 16.8421 3.15789V5.78947H15.2632C14.0351 5.78947 13.8596 6.49123 13.8596 7.36842V9.29825H16.8421L16.3158 12.2807H13.8596V20H18.9474C19.4737 20 20 19.4737 20 18.9474V1.05263C20 0.526316 19.4737 0 18.9474 0Z" fill="#FF0048"/>
</svg>
