<svg width="275" height="73" viewBox="0 0 275 73" fill="none"
	xmlns="http://www.w3.org/2000/svg">
	<path d="M36.5 0C16.3633 0 0 16.3633 0 36.5C0 56.6367 16.3633 73 36.5 73C56.673 73 73 56.6367 73 36.5C73 16.3633 56.673 0 36.5 0ZM47.9652 21.6605L49.5979 21.9145L50.3236 20.4269L51.0129 20.5358L51.3032 22.1685L52.9359 22.4225L53.0447 23.1118L51.5934 23.8738L51.8837 25.5065L51.2669 25.833L50.1059 24.672L48.6546 25.4339L48.1466 24.9622L48.8723 23.4747L47.7112 22.3136L47.9652 21.6605ZM33.9965 20.9712H35.6292L36.1372 19.411H36.8265L37.3345 20.9712H38.9672L39.1849 21.6243L37.8424 22.6039L38.3504 24.164L37.8062 24.5631L36.4637 23.5835L35.1938 24.5631L34.6496 24.164L35.1576 22.6039L33.8151 21.6243L33.9965 20.9712ZM20.1367 22.3862L21.7694 22.1322L22.0596 20.4995L22.749 20.3907L23.4747 21.8782L25.1074 21.6243L25.3976 22.2411L24.2366 23.4021L24.9622 24.8897L24.4543 25.3613L23.003 24.5994L21.8057 25.7604L21.1889 25.4339L21.4791 23.8012L20.0278 23.0393L20.1367 22.3862ZM8.8166 29.0621L8.16352 28.8444V27.2117L6.60338 26.7038V26.0144L8.16352 25.5065V23.8738L8.8166 23.6561L9.75994 24.9985L11.3201 24.4906L11.7192 25.0348L10.7396 26.341L11.6829 27.6834L11.2838 28.2276L9.79622 27.756L8.8166 29.0621ZM56.5641 53.6253C55.6208 53.081 54.6412 52.5731 53.6253 52.1377L57.5075 40.3096L49.5253 50.5413C48.4369 50.1784 47.3484 49.8519 46.2599 49.5979L47.1307 37.7699L42.0512 48.836C40.9264 48.6909 39.8017 48.582 38.6769 48.5094L36.5 36.8265L34.3231 48.5094C33.162 48.582 32.0373 48.6909 30.9488 48.836L25.833 37.7336L26.6675 49.6342C25.5427 49.8882 24.4543 50.2147 23.4021 50.5775L15.5288 40.3822L19.3748 52.174C18.3588 52.6456 17.3792 53.1173 16.4359 53.6615L9.83251 33.3434C10.9935 32.9443 12.1909 32.5452 13.3882 32.2187L23.0393 44.7361L22.0234 30.1506C23.257 29.9329 24.4543 29.7515 25.6879 29.5701L31.9647 43.2122L34.6133 28.8807C35.2301 28.8807 35.8469 28.8444 36.4637 28.8444C37.0805 28.8444 37.6973 28.8444 38.3141 28.8807L40.9627 43.2122L47.2396 29.5701C48.4732 29.7515 49.7068 29.9329 50.9041 30.1506L49.8519 44.7724L59.6118 32.255C60.8091 32.6178 62.0065 32.9806 63.1675 33.416L56.5641 53.6253ZM64.2197 29.0621L63.2401 27.756L61.6799 28.2639L61.2808 27.7197L62.2242 26.3772L61.2445 25.0711L61.6436 24.5268L63.2038 25.0348L64.1471 23.6923L64.8002 23.91V25.5427L66.3603 26.0507V26.7401L64.8002 27.248V28.8807L64.2197 29.0621Z" fill="#00FFD4"/>
	<path d="M101.19 27.1632C101.117 24.4594 101.117 21.4633 101.117 17.7365H101.044C100.24 20.8057 99.2167 24.2402 98.4129 26.9439L96.0745 34.7629H91.2516L89.3516 26.9439C88.694 24.2402 88.0363 20.8787 87.4517 17.6635H87.2325C87.0863 21.0249 87.0133 24.4594 86.9402 27.1632L86.6479 35.2014H80.875L82.1173 13.5713H90.8131L92.2746 19.0519C92.8592 21.3903 93.59 24.3863 94.0284 27.0901H94.1746C94.9053 24.3863 95.7091 21.171 96.3668 18.9788L98.0475 13.5713H106.524L107.547 35.2014H101.482L101.19 27.1632Z" fill="#00FFD4"/>
	<path d="M116.68 13.5713V35.2014H110.615V13.5713H116.68Z" fill="#00FFD4"/>
	<path d="M120.846 29.2094C122.307 29.9401 124.573 30.7439 127.057 30.7439C129.103 30.7439 130.126 30.0863 130.126 28.9902C130.126 28.0402 129.103 27.4556 126.473 26.7248C122.746 25.7018 119.75 23.8019 119.75 20.0751C119.75 16.129 123.257 13.2061 128.884 13.2061C131.807 13.2061 133.853 13.7176 135.534 14.4483L134.145 19.1982C133.122 18.7597 131.295 18.102 128.811 18.102C126.984 18.102 125.961 18.6866 125.961 19.6366C125.961 20.8058 127.349 21.1712 130.199 22.0481C134.438 23.3634 136.411 25.4095 136.411 28.6979C136.411 32.3516 133.561 35.6399 126.619 35.6399C123.769 35.6399 120.992 34.8361 119.604 34.1784L120.846 29.2094Z" fill="#00FFD4"/>
	<path d="M139.188 29.2094C140.649 29.9401 142.914 30.7439 145.399 30.7439C147.445 30.7439 148.468 30.0863 148.468 28.9902C148.468 28.0402 147.445 27.4556 144.814 26.7248C141.088 25.7018 138.091 23.8019 138.091 20.0751C138.091 16.129 141.599 13.2061 147.226 13.2061C150.149 13.2061 152.195 13.7176 153.876 14.4483L152.487 19.1982C151.464 18.7597 149.637 18.102 147.153 18.102C145.326 18.102 144.303 18.6866 144.303 19.6366C144.303 20.8058 145.691 21.1712 148.541 22.0481C152.779 23.3634 154.752 25.4095 154.752 28.6979C154.752 32.3516 151.903 35.6399 144.96 35.6399C142.111 35.6399 139.334 34.8361 137.945 34.1784L139.188 29.2094Z" fill="#00FFD4"/>
	<path d="M101.993 68.2312C98.4127 67.2081 95.8551 66.3312 92.3475 64.8697C91.836 64.6505 91.2514 64.6505 90.5937 64.5774C85.6977 64.0659 80.3633 60.8506 80.3633 53.6163C80.3633 46.9665 85.0401 42.1436 92.2744 42.1436C99.5088 42.1436 103.893 46.9665 103.893 53.1778C103.893 57.6354 101.409 61.1429 98.705 62.4583V62.6044C100.166 63.0429 101.92 63.3352 103.601 63.6275L101.993 68.2312ZM97.4627 53.4701C97.4627 49.7433 95.4166 46.8934 92.1283 46.8934C88.913 46.8934 86.7938 49.7433 86.7938 53.4701C86.7938 57.1969 88.8399 59.9737 92.1283 59.9737C95.4897 59.9007 97.4627 57.1969 97.4627 53.4701Z" fill="#00FFD4"/>
	<path d="M112.297 58.9507L110.909 64.2121H104.479L111.348 42.582H119.605L126.912 64.2121H120.19L118.582 58.9507H112.297ZM117.632 54.5663L116.463 50.7664C116.097 49.5241 115.659 47.9895 115.22 46.7473H115.147C114.782 47.9895 114.49 49.5972 114.124 50.8395L113.101 54.6393H117.632V54.5663Z" fill="#00FFD4"/>
	<path d="M128.008 61.0699L138.604 47.6242V47.5511H128.958V42.582H146.715V45.7973L136.411 59.17V59.3161H146.934V64.2852H128.008V61.0699Z" fill="#00FFD4"/>
	<path d="M156.215 58.9507L154.827 64.2121H148.396L155.265 42.582H163.523L170.83 64.2121H164.108L162.5 58.9507H156.215ZM161.55 54.5663L160.381 50.7664C160.015 49.5241 159.577 47.9895 159.138 46.7473H159.065C158.7 47.9895 158.408 49.5972 158.042 50.8395L157.019 54.6393H161.55V54.5663Z" fill="#00FFD4"/>
	<path d="M192.167 68.2312C188.587 67.2081 186.029 66.3312 182.521 64.8697C182.01 64.6505 181.425 64.6505 180.768 64.5774C175.872 64.0659 170.537 60.8506 170.537 53.6163C170.537 46.9665 175.214 42.1436 182.448 42.1436C189.683 42.1436 194.067 46.9665 194.067 53.1778C194.067 57.6354 191.583 61.1429 188.879 62.4583V62.6044C190.34 63.0429 192.094 63.3352 193.775 63.6275L192.167 68.2312ZM187.637 53.4701C187.637 49.7433 185.59 46.8934 182.302 46.8934C179.087 46.8934 176.968 49.7433 176.968 53.4701C176.968 57.1969 179.014 59.9737 182.302 59.9737C185.664 59.9007 187.637 57.1969 187.637 53.4701Z" fill="#00FFD4"/>
	<path d="M197.428 58.22C198.889 58.9508 201.155 59.7546 203.639 59.7546C205.685 59.7546 206.708 59.0969 206.708 58.0008C206.708 57.0509 205.685 56.4663 203.055 55.7355C199.328 54.7125 196.332 52.8125 196.332 49.0857C196.332 45.1397 199.839 42.2898 205.466 42.2898C208.389 42.2898 210.435 42.8013 212.116 43.5321L210.727 48.2819C209.704 47.8435 207.877 47.1858 205.393 47.1858C203.566 47.1858 202.543 47.7704 202.543 48.7204C202.543 49.8895 203.931 50.2549 206.781 51.1318C211.02 52.4472 212.993 54.4932 212.993 57.7816C212.993 61.4353 210.143 64.7237 203.201 64.7237C200.351 64.7237 197.574 63.9199 196.186 63.2622L197.428 58.22Z" fill="#00FFD4"/>
	<path d="M219.279 47.5511H213.141V42.582H231.628V47.5511H225.417V64.2852H219.352V47.5511H219.279Z" fill="#00FFD4"/>
	<path d="M237.401 58.9507L236.013 64.2121H229.582L236.451 42.582H244.782L252.089 64.2121H245.366L243.758 58.9507H237.401ZM242.809 54.5663L241.639 50.7664C241.274 49.5241 240.836 47.9895 240.397 46.7473H240.324C239.959 47.9895 239.666 49.5972 239.301 50.8395L238.278 54.6393H242.809V54.5663Z" fill="#00FFD4"/>
	<path d="M254.354 64.2121V42.582H261.953L265.534 48.8664C266.922 51.2779 268.238 54.2009 269.334 57.0508H269.407C269.042 53.8355 268.968 51.2048 268.968 48.2818V42.6551H274.595V64.2852H267.945L263.999 57.1239C262.611 54.6393 261.076 51.7163 259.834 48.7203H259.688C259.834 52.0086 259.907 55.1509 259.907 58.4392V64.2852H254.354V64.2121Z" fill="#00FFD4"/>
</svg>
