<svg width="20" height="20" viewBox="0 0 20 20" fill="none"
	xmlns="http://www.w3.org/2000/svg">
	<path d="M10 13.3333C11.841 13.3333 13.3333 11.8409 13.3333 10C13.3333 8.15905 11.841 6.66667 10 6.66667C8.15905 6.66667 6.66667 8.15905 6.66667 10C6.66667 11.8409 8.15905 13.3333 10 13.3333Z" fill="#FF0048"/>
	<path fill-rule="evenodd" clip-rule="evenodd" d="M0 6C0 2.68629 2.68629 0 6 0H14C17.3137 0 20 2.68629 20 6V14C20 17.3137 17.3137 20 14 20H6C2.68629 20 0 17.3137 0 14V6ZM16 5.33333C16.7364 5.33333 17.3333 4.73638 17.3333 4C17.3333 3.26362 16.7364 2.66667 16 2.66667C15.2636 2.66667 14.6667 3.26362 14.6667 4C14.6667 4.73638 15.2636 5.33333 16 5.33333ZM10 15.3333C12.9455 15.3333 15.3333 12.9455 15.3333 10C15.3333 7.05448 12.9455 4.66667 10 4.66667C7.05448 4.66667 4.66667 7.05448 4.66667 10C4.66667 12.9455 7.05448 15.3333 10 15.3333Z" fill="#FF0048"/>
</svg>
