<svg width="141" height="35" viewBox="0 0 141 35" fill="none"
	xmlns="http://www.w3.org/2000/svg">
	<path d="M17 0.431263C7.62127 0.431263 0 8.05254 0 17.4313C0 26.81 7.62127 34.4313 17 34.4313C26.3956 34.4313 34 26.81 34 17.4313C34 8.05254 26.3956 0.431263 17 0.431263ZM22.34 10.5197L23.1004 10.638L23.4384 9.94518L23.7594 9.99588L23.8946 10.7563L24.6551 10.8746L24.7058 11.1957L24.0298 11.5505L24.165 12.311L23.8777 12.4631L23.337 11.9223L22.661 12.2772L22.4245 12.0575L22.7624 11.3647L22.2217 10.8239L22.34 10.5197ZM15.834 10.1987H16.5944L16.831 9.47202H17.1521L17.3887 10.1987H18.1491L18.2505 10.5028L17.6252 10.9591L17.8618 11.6857L17.6083 11.8716L16.9831 11.4154L16.3916 11.8716L16.1382 11.6857L16.3748 10.9591L15.7495 10.5028L15.834 10.1987ZM9.37873 10.8577L10.1392 10.7394L10.2744 9.97898L10.5954 9.92828L10.9334 10.6211L11.6938 10.5028L11.829 10.7901L11.2883 11.3309L11.6262 12.0237L11.3897 12.2434L10.7137 11.8885L10.1561 12.4293L9.86879 12.2772L10.004 11.5167L9.32803 11.1619L9.37873 10.8577ZM4.10636 13.967L3.80219 13.8657V13.1052L3.07555 12.8686V12.5476L3.80219 12.311V11.5505L4.10636 11.4492L4.54573 12.0744L5.27237 11.8378L5.45825 12.0913L5.00199 12.6997L5.44135 13.3249L5.25547 13.5784L4.56262 13.3587L4.10636 13.967ZM26.3449 25.4074C25.9056 25.1539 25.4493 24.9173 24.9761 24.7146L26.7843 19.2056L23.0666 23.971C22.5596 23.802 22.0527 23.65 21.5457 23.5317L21.9513 18.0227L19.5855 23.1768C19.0616 23.1092 18.5378 23.0585 18.0139 23.0247L17 17.5834L15.9861 23.0247C15.4453 23.0585 14.9215 23.1092 14.4145 23.1768L12.0318 18.0058L12.4205 23.5486C11.8966 23.6668 11.3897 23.8189 10.8996 23.9879L7.2326 19.2394L9.02386 24.7315C8.5507 24.9511 8.09443 25.1708 7.65507 25.4243L4.57952 15.9611C5.12028 15.7752 5.67793 15.5893 6.23559 15.4372L10.7306 21.2672L10.2575 14.474C10.832 14.3726 11.3897 14.2881 11.9642 14.2036L14.8877 20.5575L16.1213 13.8826C16.4085 13.8826 16.6958 13.8657 16.9831 13.8657C17.2704 13.8657 17.5577 13.8657 17.8449 13.8826L19.0785 20.5575L22.002 14.2036C22.5765 14.2881 23.1511 14.3726 23.7087 14.474L23.2187 21.2841L27.7644 15.4541C28.3221 15.6231 28.8797 15.7921 29.4205 15.9949L26.3449 25.4074ZM29.9105 13.967L29.4543 13.3587L28.7276 13.5953L28.5417 13.3418L28.9811 12.7166L28.5249 12.1082L28.7107 11.8547L29.4374 12.0913L29.8767 11.4661L30.1809 11.5674V12.3279L30.9076 12.5645V12.8855L30.1809 13.1221V13.8826L29.9105 13.967Z" fill="#FF0048"/>
	<path d="M50.2735 10.0435C50.2357 8.50837 50.2357 6.80731 50.2357 4.69135H50.1979C49.7819 6.4339 49.2526 8.3839 48.8366 9.91901L47.6266 14.3584H45.131L44.1479 9.91901C43.8076 8.3839 43.4673 6.47539 43.1648 4.64986H43.0514C42.9757 6.55837 42.9379 8.50837 42.9001 10.0435L42.7489 14.6073H39.7617L40.4045 2.32646H44.9042L45.6604 5.43816C45.9629 6.76582 46.341 8.46688 46.5679 10.002H46.6435C47.0216 8.46688 47.4376 6.64135 47.7779 5.39667L48.6476 2.32646H53.0338L53.5631 14.6073H50.4247L50.2735 10.0435Z" fill="#FF0048"/>
	<path d="M58.2868 2.32646V14.6073H55.1484V2.32646H58.2868Z" fill="#FF0048"/>
	<path d="M60.4416 11.2051C61.1979 11.62 62.3701 12.0764 63.6557 12.0764C64.7144 12.0764 65.2438 11.703 65.2438 11.0806C65.2438 10.5413 64.7144 10.2093 63.3532 9.79445C61.4247 9.2136 59.8745 8.13487 59.8745 6.01892C59.8745 3.77849 61.6894 2.11892 64.601 2.11892C66.1135 2.11892 67.1722 2.40934 68.0419 2.82424L67.3234 5.52105C66.7941 5.27211 65.8488 4.89871 64.5632 4.89871C63.6179 4.89871 63.0885 5.23062 63.0885 5.76998C63.0885 6.43381 63.8069 6.64126 65.2816 7.13913C67.4747 7.88594 68.4956 9.04764 68.4956 10.9147C68.4956 12.9891 67.0209 14.8561 63.4288 14.8561C61.9541 14.8561 60.5173 14.3998 59.7988 14.0264L60.4416 11.2051Z" fill="#FF0048"/>
	<path d="M69.9338 11.2051C70.6901 11.62 71.8622 12.0764 73.1479 12.0764C74.2066 12.0764 74.736 11.703 74.736 11.0806C74.736 10.5413 74.2066 10.2093 72.8454 9.79445C70.9169 9.2136 69.3666 8.13487 69.3666 6.01892C69.3666 3.77849 71.1816 2.11892 74.0932 2.11892C75.6056 2.11892 76.6644 2.40934 77.5341 2.82424L76.8156 5.52105C76.2863 5.27211 75.341 4.89871 74.0553 4.89871C73.11 4.89871 72.5807 5.23062 72.5807 5.76998C72.5807 6.43381 73.2991 6.64126 74.7738 7.13913C76.9669 7.88594 77.9878 9.04764 77.9878 10.9147C77.9878 12.9891 76.5131 14.8561 72.921 14.8561C71.4463 14.8561 70.0094 14.3998 69.291 14.0264L69.9338 11.2051Z" fill="#FF0048"/>
	<path d="M50.6885 33.3604C48.8357 32.7795 47.5123 32.2817 45.6973 31.4519C45.4326 31.3274 45.1301 31.3274 44.7898 31.2859C42.2564 30.9955 39.4961 29.17 39.4961 25.0625C39.4961 21.287 41.9161 18.5487 45.6595 18.5487C49.4029 18.5487 51.6716 21.287 51.6716 24.8136C51.6716 27.3444 50.386 29.3359 48.9869 30.0827V30.1657C49.7432 30.4146 50.6507 30.5806 51.5203 30.7465L50.6885 33.3604ZM48.3441 24.9795C48.3441 22.8636 47.2854 21.2455 45.5838 21.2455C43.9201 21.2455 42.8236 22.8636 42.8236 24.9795C42.8236 27.0955 43.8823 28.6721 45.5838 28.6721C47.3232 28.6306 48.3441 27.0955 48.3441 24.9795Z" fill="#FF0048"/>
	<path d="M56.0186 28.0912L55.3001 31.0785H51.9727L55.527 18.7976H59.7998L63.581 31.0785H60.1023L59.2704 28.0912H56.0186ZM58.7788 25.6019L58.1738 23.4444C57.9848 22.7391 57.7579 21.8678 57.531 21.1625H57.4932C57.3042 21.8678 57.1529 22.7806 56.9639 23.4859L56.4345 25.6434H58.7788V25.6019Z" fill="#FF0048"/>
	<path d="M64.1504 29.2944L69.6331 21.6604V21.6189H64.6419V18.7976H73.8303V20.6232L68.4988 28.2157V28.2987H73.9437V31.12H64.1504V29.2944Z" fill="#FF0048"/>
	<path d="M78.7432 28.0912L78.0247 31.0785H74.6973L78.2516 18.7976H82.5244L86.3056 31.0785H82.8269L81.995 28.0912H78.7432ZM81.5034 25.6019L80.8985 23.4444C80.7094 22.7391 80.4825 21.8678 80.2556 21.1625H80.2178C80.0288 21.8678 79.8775 22.7806 79.6885 23.4859L79.1591 25.6434H81.5034V25.6019Z" fill="#FF0048"/>
	<path d="M97.3467 33.3604C95.4939 32.7795 94.1705 32.2817 92.3555 31.4519C92.0908 31.3274 91.7883 31.3274 91.448 31.2859C88.9146 30.9955 86.1543 29.17 86.1543 25.0625C86.1543 21.287 88.5743 18.5487 92.3177 18.5487C96.0611 18.5487 98.3298 21.287 98.3298 24.8136C98.3298 27.3444 97.0442 29.3359 95.6451 30.0827V30.1657C96.4014 30.4146 97.3089 30.5806 98.1786 30.7465L97.3467 33.3604ZM95.0023 24.9795C95.0023 22.8636 93.9436 21.2455 92.242 21.2455C90.5783 21.2455 89.4818 22.8636 89.4818 24.9795C89.4818 27.0955 90.5405 28.6721 92.242 28.6721C93.9814 28.6306 95.0023 27.0955 95.0023 24.9795Z" fill="#FF0048"/>
	<path d="M100.069 27.6764C100.825 28.0913 101.997 28.5476 103.283 28.5476C104.341 28.5476 104.871 28.1742 104.871 27.5519C104.871 27.0125 104.341 26.6806 102.98 26.2657C101.052 25.6849 99.5014 24.6061 99.5014 22.4902C99.5014 20.2498 101.316 18.6317 104.228 18.6317C105.74 18.6317 106.799 18.9221 107.669 19.337L106.95 22.0338C106.421 21.7849 105.476 21.4115 104.19 21.4115C103.245 21.4115 102.715 21.7434 102.715 22.2827C102.715 22.9466 103.434 23.154 104.909 23.6519C107.102 24.3987 108.123 25.5604 108.123 27.4274C108.123 29.5019 106.648 31.3689 103.056 31.3689C101.581 31.3689 100.144 30.9125 99.4258 30.5391L100.069 27.6764Z" fill="#FF0048"/>
	<path d="M111.377 21.6189H108.201V18.7976H117.768V21.6189H114.554V31.12H111.415V21.6189H111.377Z" fill="#FF0048"/>
	<path d="M120.755 28.0912L120.036 31.0785H116.709L120.263 18.7976H124.574L128.355 31.0785H124.876L124.045 28.0912H120.755ZM123.553 25.6019L122.948 23.4444C122.759 22.7391 122.532 21.8678 122.305 21.1625H122.267C122.078 21.8678 121.927 22.7806 121.738 23.4859L121.209 25.6434H123.553V25.6019Z" fill="#FF0048"/>
	<path d="M129.527 31.0785V18.7976H133.46L135.313 22.3657C136.031 23.7349 136.712 25.3944 137.279 27.0125H137.317C137.128 25.187 137.09 23.6934 137.09 22.0338V18.8391H140.001V31.12H136.56L134.519 27.054C133.8 25.6434 133.006 23.9838 132.363 22.2827H132.288C132.363 24.1498 132.401 25.9338 132.401 27.8008V31.12H129.527V31.0785Z" fill="#FF0048"/>
</svg>
