<svg width="32" height="18" viewBox="0 0 32 18" fill="none"
	xmlns="http://www.w3.org/2000/svg">
	<path d="M31.2934 16.2154C31.2432 16.14 31.218 16.0646 31.1929 16.0143C30.6399 15.034 29.6094 13.8275 28.0761 12.3948L28.051 12.3697L28.0259 12.3446L28.0007 12.3194H27.9756C27.2718 11.6408 26.8445 11.2135 26.6434 10.9873C26.3167 10.56 26.2161 10.1075 26.4172 9.65508C26.5429 9.32832 27.0456 8.5994 27.9002 7.51858C28.3526 6.94047 28.7045 6.48803 28.9559 6.13614C30.841 3.62261 31.6705 2.01395 31.4191 1.31016L31.3186 1.15935C31.2432 1.05881 31.0924 0.958269 30.8159 0.882863C30.5394 0.807457 30.1875 0.782322 29.7602 0.832592L25.0599 0.857728C24.9845 0.832592 24.8839 0.832592 24.7331 0.857728C24.5823 0.882863 24.5069 0.907998 24.5069 0.907998L24.4315 0.958269L24.3561 1.00854C24.3058 1.03367 24.2304 1.10908 24.1802 1.18449C24.1048 1.25989 24.0545 1.36043 24.0293 1.46097C23.5266 2.79315 22.9234 3.99964 22.2699 5.15586C21.8677 5.83452 21.4907 6.41263 21.1639 6.91533C20.8372 7.41804 20.5355 7.76993 20.3093 8.02129C20.0831 8.24751 19.882 8.44859 19.6809 8.57426C19.505 8.72508 19.3542 8.77535 19.2536 8.75021C19.1531 8.72508 19.0526 8.69994 18.9772 8.6748C18.8263 8.57426 18.7007 8.44859 18.6001 8.27264C18.4996 8.09669 18.4493 7.89561 18.399 7.64426C18.3739 7.3929 18.3488 7.16669 18.3488 6.99074C18.3488 6.81479 18.3488 6.5383 18.3488 6.21155C18.3488 5.88479 18.3739 5.63343 18.3739 5.53289C18.3739 5.10559 18.3739 4.67829 18.399 4.17559C18.4242 3.69802 18.4242 3.29585 18.4493 3.01936C18.4493 2.74287 18.4744 2.44125 18.4744 2.11449C18.4744 1.78773 18.4493 1.56152 18.4242 1.36043C18.399 1.18449 18.3236 1.00854 18.2482 0.832592C18.1728 0.656645 18.0471 0.530969 17.9215 0.430428C17.7707 0.329886 17.5947 0.25448 17.3685 0.20421C16.7904 0.0785334 16.0615 0.00312752 15.1566 0.00312752C13.0955 -0.0220078 11.8136 0.103669 11.2103 0.405292C10.9841 0.530969 10.783 0.681781 10.582 0.907998C10.3809 1.15935 10.3557 1.28503 10.5066 1.31016C11.1601 1.4107 11.6376 1.63692 11.889 2.01395L11.9895 2.21503C12.0649 2.36585 12.1403 2.6172 12.2158 2.96909C12.2912 3.32099 12.3414 3.72315 12.3666 4.17559C12.4168 4.97992 12.4168 5.65857 12.3666 6.21155C12.3163 6.78966 12.266 7.21696 12.2158 7.54372C12.1655 7.87048 12.0901 8.12183 11.9895 8.32291C11.889 8.52399 11.8136 8.64967 11.7885 8.6748C11.7633 8.72508 11.7382 8.75021 11.713 8.75021C11.5622 8.80048 11.4114 8.82562 11.2606 8.82562C11.1098 8.82562 10.9339 8.75021 10.7076 8.5994C10.4814 8.44859 10.2552 8.24751 10.029 7.97102C9.80277 7.69453 9.52628 7.34263 9.22466 6.83993C8.92303 6.36236 8.62141 5.78425 8.31978 5.13073L8.06843 4.65316C7.89248 4.35153 7.6914 3.8991 7.38978 3.32099C7.11329 2.74287 6.86194 2.16476 6.63572 1.63692C6.56031 1.4107 6.4095 1.23476 6.23355 1.10908L6.15815 1.05881C6.10788 1.00854 6.00734 0.958269 5.9068 0.907998C5.78112 0.857728 5.65544 0.832592 5.52977 0.807457L1.05568 0.832592C0.603247 0.832592 0.276488 0.933133 0.125676 1.13422L0.0502706 1.23476C0.0251353 1.28503 0 1.38557 0 1.48611C0 1.61179 0.0251353 1.7626 0.100541 1.93855C0.754059 3.4718 1.45785 4.95478 2.23704 6.38749C3.01624 7.8202 3.66975 8.97643 4.24787 9.85616C4.82598 10.7359 5.40409 11.5654 5.9822 12.3194C6.56031 13.0986 6.96248 13.6013 7.16356 13.8024C7.36464 14.0286 7.51545 14.1794 7.616 14.3051L8.01816 14.7073C8.26951 14.9586 8.67168 15.2854 9.17438 15.6373C9.67709 16.0143 10.2552 16.3662 10.8584 16.7181C11.4868 17.07 12.1906 17.3716 13.0201 17.5978C13.8496 17.8241 14.6287 17.8995 15.4079 17.8743H17.2931C17.6701 17.8492 17.9717 17.7235 18.1728 17.5224L18.2482 17.447C18.2985 17.3716 18.3236 17.2711 18.3739 17.1454C18.4242 17.0197 18.4242 16.8689 18.4242 16.693C18.4242 16.2154 18.4493 15.7881 18.5247 15.4111C18.6001 15.034 18.7007 14.7575 18.8012 14.5565C18.9017 14.3554 19.0274 14.2046 19.1531 14.0789C19.2788 13.9532 19.3793 13.8778 19.4296 13.8527C19.4799 13.8275 19.5301 13.8024 19.5553 13.8024C19.8066 13.727 20.1334 13.8024 20.4853 14.0538C20.8372 14.3051 21.1639 14.6319 21.4907 15.0089C21.7923 15.3859 22.1693 15.8132 22.6218 16.2908C23.0491 16.7684 23.4512 17.1203 23.778 17.3465L24.1048 17.5476C24.331 17.6732 24.6075 17.7989 24.9594 17.8995C25.3112 18 25.6129 18.0251 25.8642 17.9749L30.0618 17.8995C30.464 17.8995 30.7907 17.8241 31.017 17.6984C31.2432 17.5727 31.394 17.4219 31.4191 17.2459C31.4694 17.07 31.4694 16.894 31.4191 16.693C31.3689 16.4416 31.3437 16.2908 31.2934 16.2154Z" fill="#FF0048"/>
</svg>
