<svg width="27" height="18" viewBox="0 0 27 18" fill="none"
	xmlns="http://www.w3.org/2000/svg">
	<path fill-rule="evenodd" clip-rule="evenodd" d="M23.3758 0.550588C24.477 0.847059 25.3452 1.71529 25.6417 2.81647C26.1923 4.82824 26.1711 9.02118 26.1711 9.02118C26.1711 9.02118 26.1711 13.1929 25.6417 15.2047C25.3452 16.3059 24.477 17.1741 23.3758 17.4706C21.3641 18 13.317 18 13.317 18C13.317 18 5.29112 18 3.25818 17.4494C2.15701 17.1529 1.28877 16.2847 0.992302 15.1835C0.462891 13.1929 0.462891 9 0.462891 9C0.462891 9 0.462891 4.82824 0.992302 2.81647C1.28877 1.71529 2.17818 0.825882 3.25818 0.529412C5.26995 0 13.317 0 13.317 0C13.317 0 21.3641 0 23.3758 0.550588ZM17.4466 8.99994L10.7549 12.8541V5.14582L17.4466 8.99994Z" fill="#FF0048"/>
</svg>
